<svg width="233" height="259" viewBox="0 0 233 259" fill="none" xmlns="http://www.w3.org/2000/svg">
<path fill-rule="evenodd" clip-rule="evenodd" d="M125.13 43.4227C125.13 37.5768 123.769 31.8112 121.156 26.5824C118.897 22.0627 117.571 17.1344 117.256 12.091L116.5 0L115.745 12.0906C115.429 17.134 114.103 22.0625 111.844 26.5822C109.231 31.8111 107.87 37.5769 107.87 43.4229V215.577C107.87 221.423 109.231 227.189 111.844 232.418C114.103 236.938 115.429 241.866 115.745 246.91L116.5 259L117.256 246.909C117.571 241.866 118.897 236.938 121.156 232.417C123.769 227.189 125.13 221.423 125.13 215.577V43.4227ZM78.0075 43.8491C80.6212 49.0779 81.9815 54.8438 81.9815 60.6896V198.31C81.9815 204.157 80.6212 209.922 78.0075 215.151C75.7487 219.671 74.4225 224.599 74.1069 229.642L73.3519 241.733L72.5968 229.642C72.2812 224.599 70.955 219.671 68.6962 215.151C66.0825 209.922 64.7222 204.157 64.7222 198.31V60.6896C64.7222 54.8438 66.0825 49.0779 68.6962 43.8491C70.955 39.3293 72.2812 34.401 72.5968 29.3575L73.3519 17.2667L74.1069 29.3575C74.4225 34.401 75.7487 39.3293 78.0075 43.8491ZM60.4074 77.9563C60.4074 72.1099 59.0472 66.3445 56.4335 61.1159C54.1747 56.5958 52.8482 51.6675 52.5331 46.6241L51.7778 34.5333L51.0224 46.6241C50.7073 51.6675 49.3808 56.5958 47.1219 61.1159C44.5087 66.3445 43.1481 72.1099 43.1481 77.9563V181.044C43.1481 186.89 44.5087 192.656 47.1219 197.884C49.3808 202.404 50.7073 207.332 51.0224 212.376L51.7778 224.467L52.5331 212.376C52.8482 207.332 54.1747 202.404 56.4335 197.884C59.0472 192.656 60.4074 186.89 60.4074 181.044V77.9563ZM34.8596 95.6487C37.4728 100.878 38.8333 106.643 38.8333 112.49V146.51C38.8333 152.356 37.4728 158.122 34.8596 163.351C32.6006 167.871 31.2742 172.799 30.9591 177.842L30.2037 189.933L29.4483 177.842C29.1333 172.799 27.8068 167.871 25.5479 163.351C22.9346 158.122 21.5741 152.356 21.5741 146.51V112.49C21.5741 106.643 22.9346 100.878 25.5479 95.6487C27.8068 91.1292 29.1333 86.2006 29.4483 81.1577L30.2037 69.0667L30.9591 81.1577C31.2742 86.2006 32.6006 91.1292 34.8596 95.6487ZM17.2584 129.5L17.2593 129.756V129.244L17.2584 129.5ZM0 129.756L0.000870633 129.5C0.0400159 135.258 1.39868 140.932 3.97379 146.084C6.2327 150.604 7.55918 155.532 7.87427 160.576L8.62963 172.667L9.38499 160.576C9.70008 155.532 11.0266 150.604 13.2855 146.084C15.8606 140.932 17.2192 135.258 17.2584 129.5C17.2192 123.742 15.8606 118.068 13.2855 112.916C11.0266 108.396 9.70008 103.468 9.38499 98.4243L8.62963 86.3333L7.87427 98.4243C7.55918 103.468 6.2327 108.396 3.97379 112.916C1.39868 118.068 0.040016 123.742 0.000870633 129.5L0 129.244V129.756ZM99.5816 26.5824C102.195 31.8111 103.556 37.5769 103.556 43.4228V215.577C103.556 221.423 102.195 227.189 99.5816 232.417C97.3228 236.938 95.9965 241.866 95.681 246.909L94.9259 259L94.1708 246.909C93.8553 241.866 92.529 236.938 90.2702 232.417C87.6565 227.189 86.2963 221.423 86.2963 215.577V43.4228C86.2963 37.5769 87.6565 31.8111 90.2702 26.5824C92.529 22.0626 93.8553 17.1342 94.1708 12.0908L94.9259 0L95.681 12.0908C95.9965 17.1342 97.3228 22.0626 99.5816 26.5824ZM142.73 26.5824C145.343 31.8111 146.704 37.5769 146.704 43.4228V215.577C146.704 221.423 145.343 227.189 142.73 232.417C140.471 236.938 139.145 241.866 138.829 246.909L138.074 259L137.319 246.909C137.003 241.866 135.677 236.938 133.418 232.417C130.805 227.189 129.444 221.423 129.444 215.577V43.4228C129.444 37.5769 130.805 31.8111 133.418 26.5824C135.677 22.0626 137.003 17.1342 137.319 12.0908L138.074 0L138.829 12.0908C139.145 17.1342 140.471 22.0626 142.73 26.5824ZM168.278 60.6896C168.278 54.8438 166.918 49.0779 164.304 43.8491C162.045 39.3293 160.719 34.401 160.403 29.3575L159.648 17.2667L158.893 29.3575C158.578 34.401 157.251 39.3293 154.992 43.8491C152.379 49.0779 151.019 54.8438 151.019 60.6896V198.31C151.019 204.157 152.379 209.922 154.992 215.151C157.251 219.671 158.578 224.599 158.893 229.642L159.648 241.733L160.403 229.642C160.719 224.599 162.045 219.671 164.304 215.151C166.918 209.922 168.278 204.157 168.278 198.31V60.6896ZM185.878 61.1159C188.492 66.3445 189.852 72.1099 189.852 77.9563V181.044C189.852 186.89 188.492 192.656 185.878 197.884C183.619 202.404 182.293 207.332 181.977 212.376L181.222 224.467L180.467 212.376C180.152 207.332 178.825 202.404 176.567 197.884C173.953 192.656 172.593 186.89 172.593 181.044V77.9563C172.593 72.1099 173.953 66.3445 176.567 61.1159C178.825 56.5958 180.152 51.6675 180.467 46.6241L181.222 34.5333L181.977 46.6241C182.293 51.6675 183.619 56.5958 185.878 61.1159ZM211.426 112.49C211.426 106.643 210.066 100.878 207.452 95.6487C205.193 91.1292 203.867 86.2006 203.551 81.1577L202.796 69.0667L202.041 81.1577C201.726 86.2006 200.399 91.1292 198.141 95.6487C195.527 100.878 194.167 106.643 194.167 112.49V146.51C194.167 152.356 195.527 158.122 198.141 163.351C200.399 167.871 201.726 172.799 202.041 177.842L202.796 189.933L203.551 177.842C203.867 172.799 205.193 167.871 207.452 163.351C210.066 158.122 211.426 152.356 211.426 146.51V112.49ZM232.999 129.5C232.999 129.585 233 129.671 233 129.756V129.244C233 129.329 232.999 129.415 232.999 129.5ZM215.742 129.5C215.781 135.258 217.139 140.932 219.715 146.084C221.973 150.604 223.3 155.532 223.615 160.576L224.37 172.667L225.125 160.576C225.441 155.532 226.767 150.604 229.026 146.084C231.601 140.932 232.96 135.258 232.999 129.5C232.96 123.742 231.601 118.068 229.026 112.916C226.767 108.396 225.441 103.468 225.125 98.4243L224.37 86.3333L223.615 98.4243C223.3 103.468 221.973 108.396 219.715 112.916C217.139 118.068 215.781 123.742 215.742 129.5ZM215.742 129.5C215.741 129.415 215.741 129.329 215.741 129.244V129.756C215.741 129.671 215.741 129.585 215.742 129.5Z" fill="#646464" fill-opacity="0.4"/>
</svg>
