<svg width="177" height="47" viewBox="0 0 177 47" fill="none" xmlns="http://www.w3.org/2000/svg">
<path fill-rule="evenodd" clip-rule="evenodd" d="M22.6727 7.86455C22.6727 6.80577 22.4263 5.76152 21.9527 4.8145C21.5434 3.99591 21.3031 3.10332 21.246 2.18988L21.1091 0L20.9723 2.1898C20.9151 3.10325 20.6748 3.99587 20.2655 4.81448C19.792 5.76151 19.5455 6.80579 19.5455 7.86459V39.0445C19.5455 40.1033 19.792 41.1476 20.2655 42.0947C20.6748 42.9132 20.9151 43.8059 20.9723 44.7193L21.1091 46.9091L21.246 44.7192C21.3031 43.8058 21.5434 42.9132 21.9527 42.0946C22.4263 41.1476 22.6727 40.1034 22.6727 39.0445V7.86455ZM14.1345 7.94178C14.6081 8.88879 14.8545 9.9331 14.8545 10.9919V35.9172C14.8545 36.9761 14.6081 38.0203 14.1345 38.9674C13.7252 39.7859 13.4849 40.6786 13.4277 41.5919L13.2909 43.7818L13.1541 41.5919C13.0969 40.6786 12.8566 39.7859 12.4473 38.9674C11.9737 38.0203 11.7273 36.9761 11.7273 35.9172V10.9919C11.7273 9.9331 11.9737 8.88879 12.4473 7.94178C12.8566 7.12317 13.0969 6.23057 13.1541 5.31713L13.2909 3.12728L13.4277 5.31713C13.4849 6.23057 13.7252 7.12317 14.1345 7.94178ZM10.9455 14.1191C10.9455 13.0603 10.699 12.0161 10.2254 11.0691C9.81612 10.2504 9.57578 9.35783 9.51869 8.44438L9.38182 6.25454L9.24495 8.44438C9.18786 9.35783 8.94751 10.2504 8.53821 11.0691C8.0647 12.0161 7.81818 13.0603 7.81818 14.1191V32.7899C7.81818 33.8487 8.0647 34.893 8.53821 35.84C8.94751 36.6587 9.18786 37.5512 9.24495 38.4647L9.38182 40.6545L9.51869 38.4647C9.57578 37.5512 9.81612 36.6587 10.2254 35.84C10.699 34.893 10.9455 33.8487 10.9455 32.7899V14.1191ZM6.31634 17.3235C6.78985 18.2706 7.03636 19.3148 7.03636 20.3737V26.5354C7.03636 27.5942 6.78985 28.6385 6.31634 29.5855C5.90704 30.4041 5.66669 31.2967 5.60959 32.2101L5.47273 34.4L5.33586 32.2101C5.27877 31.2967 5.03842 30.4041 4.62912 29.5855C4.15561 28.6385 3.90909 27.5942 3.90909 26.5354V20.3737C3.90909 19.3148 4.15561 18.2706 4.62912 17.3235C5.03842 16.505 5.27877 15.6123 5.33586 14.699L5.47273 12.5091L5.60959 14.699C5.66669 15.6123 5.90704 16.505 6.31634 17.3235ZM3.12712 23.4545L3.12727 23.501V23.4081L3.12712 23.4545ZM0 23.501L0.000157753 23.4545C0.00725063 24.4975 0.253433 25.5251 0.720026 26.4582C1.12933 27.2769 1.36968 28.1694 1.42677 29.0829L1.56364 31.2727L1.7005 29.0829C1.7576 28.1694 1.99795 27.2769 2.40725 26.4582C2.87384 25.5251 3.12002 24.4975 3.12712 23.4545C3.12002 22.4116 2.87384 21.384 2.40725 20.4509C1.99795 19.6322 1.7576 18.7397 1.7005 17.8262L1.56364 15.6364L1.42677 17.8262C1.36968 18.7397 1.12933 19.6322 0.720026 20.4509C0.253433 21.384 0.00725065 22.4116 0.000157753 23.4545L0 23.4081V23.501ZM18.0436 4.8145C18.5172 5.76151 18.7636 6.80578 18.7636 7.86457V39.0445C18.7636 40.1034 18.5172 41.1476 18.0436 42.0946C17.6343 42.9132 17.394 43.8058 17.3368 44.7192L17.2 46.9091L17.0632 44.7192C17.006 43.8058 16.7657 42.9132 16.3564 42.0946C15.8828 41.1476 15.6364 40.1034 15.6364 39.0445V7.86457C15.6364 6.80578 15.8828 5.76151 16.3564 4.8145C16.7657 3.99589 17.006 3.10328 17.0632 2.18984L17.2 0L17.3368 2.18984C17.394 3.10328 17.6343 3.99589 18.0436 4.8145ZM25.8618 4.8145C26.3353 5.76151 26.5818 6.80578 26.5818 7.86457V39.0445C26.5818 40.1034 26.3353 41.1476 25.8618 42.0946C25.4525 42.9132 25.2122 43.8058 25.155 44.7192L25.0182 46.9091L24.8814 44.7192C24.8242 43.8058 24.5839 42.9132 24.1746 42.0946C23.701 41.1476 23.4545 40.1034 23.4545 39.0445V7.86457C23.4545 6.80578 23.701 5.76151 24.1746 4.8145C24.5839 3.99589 24.8242 3.10328 24.8814 2.18984L25.0182 0L25.155 2.18984C25.2122 3.10328 25.4525 3.99589 25.8618 4.8145ZM30.4909 10.9919C30.4909 9.9331 30.2444 8.88879 29.7709 7.94178C29.3616 7.12317 29.1213 6.23057 29.0641 5.31713L28.9273 3.12728L28.7905 5.31713C28.7333 6.23057 28.493 7.12317 28.0837 7.94178C27.6101 8.88879 27.3636 9.9331 27.3636 10.9919V35.9172C27.3636 36.9761 27.6101 38.0203 28.0837 38.9674C28.493 39.7859 28.7333 40.6786 28.7905 41.5919L28.9273 43.7818L29.0641 41.5919C29.1213 40.6786 29.3616 39.7859 29.7709 38.9674C30.2444 38.0203 30.4909 36.9761 30.4909 35.9172V10.9919ZM33.6799 11.0691C34.1535 12.0161 34.4 13.0603 34.4 14.1191V32.7899C34.4 33.8487 34.1535 34.893 33.6799 35.84C33.2707 36.6587 33.0304 37.5512 32.9732 38.4647L32.8364 40.6545L32.6995 38.4647C32.6424 37.5512 32.4021 36.6587 31.9928 35.84C31.5193 34.893 31.2727 33.8487 31.2727 32.7899V14.1191C31.2727 13.0603 31.5193 12.0161 31.9928 11.0691C32.4021 10.2504 32.6424 9.35783 32.6995 8.44438L32.8364 6.25454L32.9732 8.44438C33.0304 9.35783 33.2707 10.2504 33.6799 11.0691ZM38.3091 20.3737C38.3091 19.3148 38.0626 18.2706 37.589 17.3235C37.1798 16.505 36.9394 15.6123 36.8823 14.699L36.7455 12.5091L36.6086 14.699C36.5515 15.6123 36.3112 16.505 35.9019 17.3235C35.4284 18.2706 35.1818 19.3148 35.1818 20.3737V26.5354C35.1818 27.5942 35.4284 28.6385 35.9019 29.5855C36.3112 30.4041 36.5515 31.2967 36.6086 32.2101L36.7455 34.4L36.8823 32.2101C36.9394 31.2967 37.1798 30.4041 37.589 29.5855C38.0626 28.6385 38.3091 27.5942 38.3091 26.5354V20.3737ZM42.218 23.4545C42.2181 23.47 42.2182 23.4854 42.2182 23.501V23.4081C42.2182 23.4237 42.2181 23.4391 42.218 23.4545ZM39.0911 23.4545C39.0981 24.4975 39.3443 25.5251 39.811 26.4582C40.2202 27.2769 40.4606 28.1694 40.5177 29.0829L40.6545 31.2727L40.7914 29.0829C40.8485 28.1694 41.0888 27.2769 41.4981 26.4582C41.9648 25.5251 42.2109 24.4975 42.218 23.4545C42.2109 22.4116 41.9648 21.384 41.4981 20.4509C41.0888 19.6322 40.8485 18.7397 40.7914 17.8262L40.6545 15.6364L40.5177 17.8262C40.4606 18.7397 40.2202 19.6322 39.811 20.4509C39.3443 21.384 39.0981 22.4116 39.0911 23.4545ZM39.0911 23.4545C39.091 23.4391 39.0909 23.4237 39.0909 23.4081V23.501C39.0909 23.4854 39.091 23.47 39.0911 23.4545Z" fill="#212326"/>
<path d="M50.1562 4.19531V21H56.4023C58.8398 21 60.8906 20.1914 62.5547 18.5625C64.207 16.9453 65.0391 14.9531 65.0391 12.5977C65.0391 10.2539 64.207 8.26172 62.5547 6.63281C60.8906 5.01562 58.8398 4.19531 56.4023 4.19531H50.1562ZM56.4023 7.44141C57.832 7.44141 59.0391 7.94531 60 8.94141C60.9609 9.94922 61.4414 11.168 61.4414 12.6094C61.4414 14.0508 60.9492 15.2695 59.9648 16.2656C58.9805 17.2734 57.7852 17.7656 56.4023 17.7656H53.7656V7.44141H56.4023ZM72 17.7656V14.0391H78.832V10.8047H72V7.44141H80.7539V4.19531H68.3906V21H81V17.7656H72ZM88.9102 21H92.7539L99 4.19531H95.1562L90.832 16.6758L86.5195 4.19531H82.6758L88.9102 21ZM50.1562 25.1953V42H56.4023C58.8398 42 60.8906 41.1914 62.5547 39.5625C64.207 37.9453 65.0391 35.9531 65.0391 33.5977C65.0391 31.2539 64.207 29.2617 62.5547 27.6328C60.8906 26.0156 58.8398 25.1953 56.4023 25.1953H50.1562ZM56.4023 28.4414C57.832 28.4414 59.0391 28.9453 60 29.9414C60.9609 30.9492 61.4414 32.168 61.4414 33.6094C61.4414 35.0508 60.9492 36.2695 59.9648 37.2656C58.9805 38.2734 57.7852 38.7656 56.4023 38.7656H53.7656V28.4414H56.4023ZM68.3906 42H72V25.1953H68.3906V42ZM83.6367 37.0781C83.6367 37.7109 83.3906 38.2266 82.8984 38.625C82.4062 39.0352 81.7383 39.2344 80.8711 39.2344C80.1211 39.2344 79.3945 39.0703 78.7148 38.7305C78.0234 38.4023 77.5781 38.1328 77.3789 37.9336C77.1797 37.7344 77.0273 37.5703 76.9219 37.4414L74.7539 39.5977L75.0234 39.8906C75.1758 40.0781 75.4336 40.3125 75.7969 40.582C76.1484 40.8633 76.5703 41.1328 77.0391 41.3906C77.5078 41.6602 78.1172 41.8945 78.8438 42.082C79.5703 42.2695 80.332 42.3633 81.1055 42.3633C83.0977 42.3633 84.6562 41.8711 85.7812 40.8867C86.9062 39.9023 87.4688 38.6367 87.4688 37.0781C87.4688 35.9766 87.1875 35.0742 86.6133 34.3477C86.0508 33.6328 85.3594 33.1172 84.5391 32.8008C83.7188 32.4961 82.9102 32.2148 82.1016 31.9805C81.293 31.7461 80.6016 31.4648 80.0391 31.125C79.4766 30.7852 79.1836 30.3281 79.1836 29.7656C79.1836 29.2734 79.3945 28.8398 79.8164 28.4883C80.2383 28.1367 80.7891 27.9609 81.4688 27.9609C82.043 27.9609 82.5938 28.1016 83.1328 28.3594C83.6719 28.6289 84.0352 28.8398 84.1992 29.0039C84.3633 29.168 84.4922 29.2969 84.5859 29.4141L86.7422 27.1289L86.5312 26.8945C86.4023 26.7305 86.1797 26.5312 85.875 26.3086C85.5703 26.0859 85.207 25.8633 84.7969 25.6523C84.3867 25.4414 83.8594 25.2539 83.2148 25.0898C82.582 24.9258 81.9141 24.8555 81.2227 24.8555C79.4883 24.8555 78.0703 25.3359 76.9805 26.2969C75.8906 27.2578 75.3398 28.418 75.3398 29.7773C75.3398 30.8789 75.6328 31.7812 76.1953 32.5078C76.7695 33.2227 77.4609 33.7383 78.2695 34.0547C79.0781 34.3594 79.8867 34.6289 80.707 34.8633C81.5273 35.0977 82.2188 35.3789 82.7812 35.7305C83.3438 36.0703 83.6367 36.5156 83.6367 37.0781ZM98.8711 24.8438C96.3047 24.8438 94.1367 25.6992 92.3789 27.4102C90.6211 29.1211 89.7422 31.1836 89.7422 33.5977C89.7422 36.0117 90.6211 38.0859 92.3789 39.7969C94.1367 41.5078 96.3047 42.3633 98.8711 42.3633C99.7383 42.3633 100.582 42.2461 101.402 42C102.223 41.7656 102.879 41.4961 103.383 41.2031C103.887 40.9102 104.355 40.5703 104.801 40.1836C105.246 39.7969 105.527 39.5273 105.656 39.375C105.785 39.2227 105.879 39.0938 105.949 39L103.781 36.7148L103.594 36.9609C103.465 37.1367 103.266 37.3359 102.984 37.5703C102.703 37.8047 102.375 38.0391 102.012 38.2734C101.637 38.5078 101.18 38.707 100.617 38.8711C100.055 39.0352 99.4805 39.1172 98.8711 39.1172C97.3008 39.1172 95.9883 38.5898 94.9336 37.5352C93.8789 36.4805 93.3516 35.168 93.3516 33.5977C93.3516 32.0273 93.8789 30.7148 94.9336 29.6602C95.9883 28.6055 97.3008 28.0781 98.8711 28.0781C99.4336 28.0781 99.9961 28.1719 100.547 28.3477C101.086 28.5234 101.531 28.7109 101.871 28.9219C102.199 29.1328 102.516 29.3672 102.797 29.6367C103.078 29.918 103.266 30.1055 103.348 30.2227C103.43 30.3398 103.5 30.4219 103.547 30.4805L105.832 28.1953L105.562 27.8438C105.387 27.6211 105.105 27.3398 104.707 27.0117C104.309 26.6836 103.863 26.3555 103.348 26.0273C102.832 25.6992 102.188 25.4297 101.391 25.1953C100.594 24.9609 99.75 24.8438 98.8711 24.8438ZM111.094 33.6094C111.094 32.0625 111.609 30.75 112.664 29.6836C113.707 28.6172 114.984 28.0781 116.484 28.0781C117.984 28.0781 119.262 28.6172 120.305 29.6836C121.359 30.75 121.875 32.0625 121.875 33.6094C121.875 35.1562 121.359 36.4688 120.305 37.5234C119.262 38.5898 117.984 39.1172 116.484 39.1172C114.984 39.1172 113.707 38.5898 112.664 37.5234C111.609 36.4688 111.094 35.1562 111.094 33.6094ZM107.367 33.5977C107.367 36.0117 108.246 38.0859 110.004 39.7969C111.762 41.5078 113.93 42.3633 116.484 42.3633C119.039 42.3633 121.207 41.5078 122.965 39.7969C124.723 38.0859 125.602 36.0117 125.602 33.5977C125.602 31.1836 124.723 29.1211 122.965 27.4102C121.207 25.6992 119.039 24.8438 116.484 24.8438C113.93 24.8438 111.762 25.6992 110.004 27.4102C108.246 29.1211 107.367 31.1836 107.367 33.5977ZM132.574 42H136.418L142.664 25.1953H138.82L134.496 37.6758L130.184 25.1953H126.34L132.574 42ZM148.898 38.7656V35.0391H155.73V31.8047H148.898V28.4414H157.652V25.1953H145.289V42H157.898V38.7656H148.898ZM161.25 42H164.859V36.1172H167.977L171.211 42H175.055L171.457 35.6367L171.762 35.4727C171.973 35.3789 172.219 35.2031 172.523 34.9453C172.816 34.6875 173.109 34.3828 173.391 34.0195C173.672 33.668 173.918 33.1875 174.129 32.6016C174.34 32.0156 174.445 31.3945 174.445 30.7148C174.445 29.168 173.906 27.8672 172.816 26.8008C171.727 25.7344 170.344 25.1953 168.68 25.1953H161.238L161.25 42ZM170.848 30.7148C170.848 31.3242 170.637 31.8398 170.203 32.2617C169.77 32.6836 169.219 32.8828 168.562 32.8828H164.848V28.4414H168.562C169.219 28.4414 169.77 28.6641 170.203 29.0859C170.637 29.5195 170.848 30.0586 170.848 30.7148Z" fill="#212326"/>
</svg>
