<?xml version="1.0" standalone="no"?>
<!DOCTYPE svg PUBLIC "-//W3C//DTD SVG 20010904//EN"
 "http://www.w3.org/TR/2001/REC-SVG-20010904/DTD/svg10.dtd">
<svg version="1.0" xmlns="http://www.w3.org/2000/svg"
 width="956.000000pt" height="956.000000pt" viewBox="0 0 956.000000 956.000000"
 preserveAspectRatio="xMidYMid meet">
<metadata>
Created by potrace 1.14, written by Peter Selinger 2001-2017
</metadata>
<g transform="translate(0.000000,956.000000) scale(0.100000,-0.100000)"
fill="#000000" stroke="none">
<path d="M4775 9488 c-2 -13 -7 -75 -10 -138 -16 -312 -18 -335 -52 -485 -8
-38 -20 -76 -25 -82 -6 -7 -8 -13 -5 -13 6 0 -33 -102 -68 -175 -57 -120 -109
-265 -120 -335 -2 -14 -7 -36 -10 -50 -3 -14 -9 -50 -13 -80 -9 -77 -9 -6642
1 -6710 4 -30 12 -73 18 -95 5 -22 11 -49 13 -60 3 -23 24 -91 36 -120 4 -11
15 -38 23 -60 8 -22 31 -74 50 -115 95 -207 128 -341 142 -580 2 -30 7 -102
10 -160 4 -58 8 -119 8 -137 3 -52 13 -29 15 34 3 96 10 174 15 180 3 2 1 17
-3 33 -4 16 -6 31 -2 34 3 4 7 24 8 47 11 203 50 347 155 584 23 50 44 99 49
110 9 20 32 92 36 110 1 6 9 40 18 77 9 37 20 93 24 125 10 80 9 6644 -1 6718
-5 32 -10 62 -13 66 -2 4 -6 22 -8 40 -6 42 -63 224 -84 264 -8 17 -19 39 -25
50 -29 56 -86 209 -81 216 3 5 0 9 -5 9 -6 0 -10 3 -9 8 0 4 -1 14 -5 22 -3 8
-8 29 -11 45 -3 17 -10 51 -16 77 -12 60 -20 133 -26 228 -2 41 -7 120 -11
175 -3 55 -6 115 -6 133 0 37 -5 42 -12 10z"/>
<path d="M5569 9474 c-1 -49 -5 -120 -13 -249 -21 -310 -46 -413 -155 -652
-27 -60 -63 -153 -79 -208 -36 -119 -46 -164 -58 -281 -9 -82 -8 -6500 0
-6599 4 -44 10 -93 13 -110 3 -16 7 -37 8 -45 5 -34 38 -154 52 -190 4 -8 7
-17 8 -20 1 -3 9 -23 19 -45 10 -22 19 -46 20 -53 1 -7 8 -18 14 -24 7 -7 12
-20 12 -29 0 -10 4 -20 9 -23 6 -4 62 -142 66 -166 1 -3 7 -25 15 -50 7 -25
14 -52 16 -60 1 -8 4 -24 7 -35 5 -20 13 -76 21 -150 7 -55 25 -338 26 -399 0
-52 12 -19 16 46 17 312 19 340 28 415 4 28 16 87 27 130 10 43 21 87 24 98 7
30 22 66 86 211 49 112 121 320 118 342 -1 4 0 9 1 12 22 57 24 331 24 3450
-1 2934 -3 3374 -20 3401 -3 5 -7 26 -9 49 -6 57 -67 235 -116 338 -23 48 -42
93 -42 100 0 6 -4 12 -9 12 -4 0 -7 3 -6 8 1 4 -12 52 -30 107 -33 108 -50
199 -58 310 -2 39 -6 99 -9 135 -2 36 -7 107 -9 159 -6 96 -15 135 -17 65z"/>
<path d="M3974 9452 c-1 -62 -12 -271 -19 -352 -13 -146 -56 -328 -105 -435
-74 -164 -140 -330 -131 -330 1 0 -2 -12 -7 -26 -6 -14 -13 -41 -16 -60 -3
-19 -8 -45 -11 -59 -17 -76 -19 -442 -19 -3445 l1 -3280 22 -113 c25 -127 64
-245 123 -371 38 -82 93 -227 102 -274 3 -12 7 -33 10 -47 25 -113 37 -228 50
-504 5 -94 15 -128 17 -55 1 24 2 58 4 74 1 17 5 82 9 145 8 144 15 218 22
250 3 14 8 40 10 59 5 51 62 227 99 306 61 131 75 164 75 175 0 5 5 18 10 28
13 21 60 195 65 242 3 19 7 67 11 105 8 98 8 6480 -1 6589 -3 49 -9 98 -11
110 -3 11 -8 37 -11 56 -3 19 -19 78 -36 130 -28 88 -43 125 -111 272 -33 71
-92 274 -101 348 -11 88 -14 126 -30 395 -6 105 -19 147 -21 67z"/>
<path d="M6369 8878 c0 -7 -2 -21 -4 -30 -2 -10 0 -18 4 -18 5 0 8 14 9 30 1
28 -7 44 -9 18z"/>
<path d="M3179 8813 c0 -21 -2 -63 -4 -93 -15 -233 -23 -340 -29 -370 -1 -8
-6 -31 -10 -50 -4 -19 -9 -44 -11 -55 -2 -11 -4 -20 -5 -20 -1 0 -3 -10 -6
-22 -8 -43 -47 -149 -87 -233 -88 -188 -140 -366 -153 -525 -5 -56 -4 -5269 0
-5325 5 -56 14 -112 27 -171 6 -26 12 -55 14 -65 2 -11 4 -20 5 -21 2 -2 3 -6
4 -10 4 -19 28 -90 36 -108 5 -11 21 -47 36 -80 15 -33 28 -62 29 -65 1 -3 11
-27 23 -53 12 -27 22 -55 22 -62 0 -8 5 -17 10 -20 6 -4 8 -10 5 -15 -3 -5 -1
-11 4 -14 5 -3 12 -23 16 -43 5 -21 9 -42 11 -48 16 -58 33 -152 39 -213 14
-175 24 -330 25 -411 0 -19 2 -32 5 -30 4 5 11 81 20 229 12 197 19 273 29
323 3 15 8 39 11 55 13 64 61 203 98 282 42 92 97 226 102 250 2 8 10 42 19
75 8 33 18 78 22 99 3 21 8 48 11 60 9 33 10 5323 1 5396 -21 178 -54 297
-126 450 -19 41 -36 80 -38 85 -1 6 -14 37 -28 71 -26 64 -63 195 -71 254 -3
19 -8 51 -11 70 -4 19 -8 62 -10 95 -2 33 -6 103 -9 155 -4 52 -7 121 -8 152
-2 64 -17 80 -18 21z"/>
<path d="M6363 8788 c-5 -198 -29 -457 -47 -516 -3 -9 -7 -29 -10 -44 -7 -43
-55 -176 -88 -248 -60 -128 -93 -215 -114 -292 -1 -5 -2 -9 -4 -10 -2 -4 -7
-27 -15 -73 -4 -22 -8 -42 -10 -45 -2 -3 -7 -37 -11 -75 -9 -83 -8 -5366 1
-5410 3 -16 6 -37 6 -45 0 -8 5 -37 11 -65 6 -27 11 -51 10 -52 -1 -2 5 -21
13 -43 8 -22 15 -44 16 -48 8 -34 30 -92 67 -172 67 -148 100 -240 128 -362 2
-10 6 -28 9 -40 11 -45 28 -265 39 -490 2 -43 12 -75 13 -46 1 7 4 63 7 123
15 271 26 379 48 460 6 22 12 49 13 60 1 11 4 21 5 23 1 1 4 7 5 12 1 6 3 11
5 13 1 1 3 9 5 17 6 28 47 135 56 144 5 6 9 17 9 25 0 8 6 22 13 30 16 20 82
184 92 231 2 8 10 42 18 75 18 68 28 129 33 195 6 71 5 5280 -1 5330 -7 73
-21 150 -30 180 -3 10 -8 28 -10 39 -10 44 -14 58 -40 130 -15 41 -34 89 -43
105 -9 17 -17 33 -17 36 -1 3 -10 25 -22 50 -32 69 -52 120 -48 120 2 0 -5 21
-16 46 -11 26 -17 49 -15 51 2 3 -2 23 -10 45 -7 21 -13 42 -12 46 1 4 -1 25
-5 47 -10 55 -17 125 -23 225 -2 47 -7 114 -9 150 -2 36 -4 73 -4 83 -1 31
-17 18 -18 -15z"/>
<path d="M2389 8238 c-1 -2 -2 -25 -4 -53 -4 -81 -15 -245 -21 -316 -17 -229
-52 -366 -144 -563 -55 -117 -100 -246 -116 -331 -2 -11 -6 -31 -9 -45 -3 -14
-8 -45 -12 -70 -9 -58 -7 -4097 1 -4170 8 -60 38 -184 62 -259 18 -52 31 -83
81 -191 36 -77 96 -250 107 -308 3 -17 9 -46 12 -64 3 -18 7 -46 9 -63 2 -16
4 -30 5 -30 0 0 3 -34 5 -75 2 -41 6 -118 10 -170 4 -52 8 -119 10 -148 3 -59
13 -82 13 -30 1 117 23 425 38 508 13 76 43 198 59 235 7 17 20 48 28 70 8 22
31 74 50 115 63 136 106 278 124 411 10 71 10 4130 0 4189 -4 25 -9 54 -12 65
-30 134 -58 219 -102 315 -75 161 -87 191 -118 307 -16 58 -23 93 -30 143 -3
19 -8 52 -10 72 -3 20 -8 72 -10 115 -5 73 -16 270 -18 321 -1 19 -5 28 -8 20z"/>
<path d="M7160 8180 c1 -30 -1 -82 -4 -115 -3 -33 -8 -101 -10 -152 -6 -115
-16 -200 -30 -258 -2 -11 -9 -41 -15 -68 -16 -69 -49 -161 -88 -247 -73 -159
-117 -280 -129 -360 -3 -19 -7 -37 -9 -40 -17 -27 -20 -391 -20 -2160 0 -1823
3 -2111 21 -2172 3 -9 7 -26 9 -39 15 -77 65 -213 128 -349 50 -109 93 -245
111 -355 14 -87 34 -345 38 -498 2 -57 9 -54 13 5 7 104 17 259 21 328 2 41 4
76 5 78 1 1 2 10 3 20 5 52 20 125 37 187 11 39 21 77 23 85 8 27 34 95 49
125 34 68 61 130 59 138 -1 4 3 7 10 7 6 0 9 3 6 6 -4 3 1 22 9 42 24 58 53
168 72 274 16 91 17 241 16 2125 -2 1116 -5 2048 -9 2073 -8 61 -13 87 -26
140 -7 25 -13 52 -15 60 -9 40 -42 127 -94 245 -74 167 -102 249 -116 335 -3
19 -8 43 -11 53 -8 26 -15 104 -29 337 -9 149 -13 191 -20 199 -4 3 -6 -19 -5
-49z"/>
<path d="M7959 6934 c-1 -45 -17 -302 -23 -374 -7 -89 -16 -152 -32 -215 -8
-33 -16 -68 -19 -79 -10 -44 -46 -137 -80 -211 -37 -79 -92 -215 -100 -245
-33 -132 -43 -187 -52 -270 -8 -89 -8 -1473 1 -1535 4 -27 9 -63 12 -80 15
-115 52 -226 136 -415 53 -121 58 -133 77 -192 13 -41 15 -50 36 -156 17 -82
24 -164 39 -451 6 -111 15 -146 17 -65 1 27 3 65 4 84 2 19 6 78 9 130 15 213
21 270 36 330 5 19 11 46 14 60 9 48 54 175 91 255 56 123 62 136 84 200 23
70 41 138 46 174 2 14 5 26 6 26 2 0 6 29 15 115 9 92 10 1403 1 1515 -4 44
-9 91 -12 105 -4 14 -8 39 -11 55 -3 17 -12 49 -20 73 -8 23 -14 49 -14 56 0
7 -8 33 -19 57 -18 44 -33 80 -36 89 -1 3 -17 39 -37 80 -32 69 -78 183 -78
195 0 3 -6 29 -15 59 -9 29 -18 70 -21 92 -3 21 -7 53 -10 69 -5 34 -11 101
-18 225 -10 163 -18 255 -22 259 -2 2 -4 -4 -5 -15z"/>
<path d="M1589 6914 c-8 -162 -29 -437 -35 -469 -2 -11 -7 -33 -10 -50 -21
-117 -60 -234 -118 -359 -82 -173 -122 -313 -143 -491 -8 -71 -7 -1469 1
-1535 12 -96 28 -184 42 -222 7 -21 11 -38 7 -38 -3 0 -1 -6 4 -12 6 -7 13
-26 17 -41 4 -16 33 -88 66 -161 93 -207 134 -356 145 -526 1 -19 6 -87 10
-150 4 -63 9 -131 10 -150 2 -19 4 -53 4 -74 2 -69 12 -31 16 60 10 204 21
368 30 414 3 14 7 41 10 60 3 19 10 49 15 65 5 17 11 41 14 55 6 36 47 142 91
235 76 161 129 349 142 500 3 39 6 378 6 755 0 611 -4 811 -18 852 -2 7 -6 27
-8 43 -5 37 -35 152 -48 183 -5 12 -13 32 -18 45 -5 12 -29 67 -54 122 -46
105 -102 259 -110 310 -3 17 -10 53 -15 80 -14 71 -31 280 -36 437 -2 61 -15
108 -17 62z"/>
<path d="M8759 6328 c-1 -7 -9 -132 -13 -218 -3 -52 -5 -95 -6 -95 -1 0 -3
-30 -5 -67 -2 -37 -7 -84 -10 -105 -4 -21 -8 -47 -9 -58 -12 -82 -29 -146 -81
-293 -2 -7 -5 -14 -5 -17 -1 -2 -15 -33 -32 -67 -18 -35 -33 -65 -33 -68 -1
-3 -9 -22 -18 -43 -16 -37 -53 -149 -63 -192 -48 -196 -50 -367 -10 -610 9
-56 69 -230 105 -306 17 -36 31 -71 31 -77 0 -7 5 -12 10 -12 6 0 10 -8 10
-18 0 -10 4 -22 8 -28 8 -8 40 -108 58 -179 28 -115 34 -169 50 -445 3 -52 6
-114 8 -137 2 -45 12 -67 13 -30 1 35 13 235 19 315 8 121 20 221 30 254 3 9
7 25 9 35 15 71 40 144 75 224 98 222 139 338 154 434 2 17 5 30 6 30 8 0 14
108 13 235 -1 240 -36 380 -159 645 -16 33 -29 62 -30 65 0 3 -4 12 -7 20 -17
40 -35 100 -30 100 3 0 0 7 -7 15 -7 8 -10 15 -7 15 3 0 0 21 -8 48 -22 80
-26 111 -39 302 -15 207 -19 278 -19 303 -1 22 -5 36 -8 25z"/>
<path d="M791 6257 c-2 -28 -5 -79 -6 -112 -2 -33 -4 -60 -5 -60 -1 0 -12
-181 -13 -222 -1 -13 -4 -23 -7 -23 -3 0 -5 -12 -5 -26 1 -15 -5 -54 -13 -88
-8 -34 -15 -68 -17 -76 -2 -8 -4 -15 -5 -15 -1 0 -3 -7 -5 -15 -8 -37 -40
-121 -73 -190 -19 -41 -36 -79 -38 -85 -1 -5 -11 -30 -23 -55 -29 -66 -69
-211 -85 -315 -17 -109 -12 -412 7 -432 4 -3 7 -18 7 -33 0 -15 9 -56 21 -91
11 -35 22 -71 24 -79 4 -18 29 -78 57 -140 11 -25 31 -68 44 -97 13 -28 24
-54 24 -57 0 -2 5 -17 12 -33 6 -15 12 -32 14 -38 44 -162 57 -229 58 -297 1
-21 3 -38 6 -38 3 0 4 -24 4 -52 -1 -29 3 -61 8 -70 5 -12 5 -18 -1 -18 -6 0
-8 -6 -6 -12 6 -17 13 -108 14 -175 1 -51 16 -78 18 -30 0 12 3 74 7 137 4 63
8 147 11 185 11 197 55 370 141 553 48 103 101 245 109 295 3 18 10 48 15 67
31 124 33 345 4 490 -3 14 -7 41 -10 60 -7 53 -67 224 -114 325 -22 50 -45 99
-50 110 -11 25 -41 114 -45 138 -3 10 -7 28 -11 40 -4 12 -8 31 -10 42 -2 11
-5 31 -9 45 -5 23 -11 83 -20 190 -3 38 -11 165 -18 307 -3 52 -13 46 -16 -10z"/>
</g>
</svg>
